# xmcd
#
# Track frame offsets:
#	150
#	15879
#	29602
#	43689
#	58843
#	72416
#	87335
#	103644
#	115902
#	131981
#	148435
#	169446
#	186905
#	204318
#
# Disc length: 3001 seconds
#
# Revision: 1
# Processed by: cddbd v1.5.1PL0 Copyright (c) Steve Scherf et al.
# Submitted via: audiograbber 1.83.01
#
DISCID=d60bb70e
DTITLE=Андрей Алексин. - Мозоли.
DYEAR=1900
DGENRE=
TTITLE0=Мозоли.
TTITLE1=Парень.
TTITLE2=Мы вернемся.
TTITLE3=Папочка, папа. (feat. Колючки)
TTITLE4=Невменяемая.
TTITLE5=На льдине.
TTITLE6=Тварь.
TTITLE7=Птицы.
TTITLE8=Ла-ла-ла.
TTITLE9=Под дождем.
TTITLE10=Осень.
TTITLE11=Касивая.
TTITLE12=Касивая. (Караоке)
TTITLE13=Осень. (Караоке)
EXTD=
EXTT0=
EXTT1=
EXTT2=
EXTT3=
EXTT4=
EXTT5=
EXTT6=
EXTT7=
EXTT8=
EXTT9=
EXTT10=
EXTT11=
EXTT12=
EXTT13=
PLAYORDER=
